<?xml version="1.0" encoding="utf-8"?>
<!-- Generator: Adobe Illustrator 19.0.0, SVG Export Plug-In . SVG Version: 6.00 Build 0)  -->
<svg version="1.1" id="Layer_1" xmlns="http://www.w3.org/2000/svg" xmlns:xlink="http://www.w3.org/1999/xlink" x="0px" y="0px"
	 viewBox="135.5 382.3 68 29.5" style="enable-background:new 135.5 382.3 68 29.5;" xml:space="preserve">
<style type="text/css">
	.st0{fill:#E10143;}
</style>
<g>
	<g>
		<path d="M160,402.7l3.4-5.5l-3.4,0.8l0-8.2c-0.3-3-1.9-3-1.9-3l-19.6,0c-1.9,0-2.1,3.1-2.1,3.1v14.4c-0.2,4,2.4,3.9,2.4,3.9
			l18.5,2.9c2.9,0.5,2.6-3.3,2.6-3.3L160,402.7L160,402.7z M155.6,409.2l-16.3-2.7c0,0-1.5-0.3-1.5-2.8l0-13.8c0,0,0-1.8,1.6-1.9
			l16.6,0c0,0,1.5,0.1,1.6,2.8l0,15.6C157.5,406.5,157.8,409.4,155.6,409.2z"/>
	</g>
	<path d="M145.3,396.2c0,0-0.2-2.8,1.7-2.8c2,0.1,2.5,2.5,0.1,4.1c-2.4,1.6-5.7,3.3-5.4,6.8l10.7,1.6v-3.8l-5.8-0.6
		c0,0,1.7-1.2,3.4-2.2c1.7-1,2.7-2.7,2.4-5c-0.4-2.3-2.2-5-6.9-3.9c-3.9,0.9-3.6,5.6-3.6,5.6L145.3,396.2z"/>
	<g>
		<path class="st0" d="M201.3,400.5c-3.1-3.4-7.1-1.1-7.1-1.1c-1.5,0.8-2.6,2.6-2.6,2.6c-2,3.4-0.3,6.5-0.3,6.5
			c0.1,0.1,0.1,0.3,0.2,0.4c-0.3,0.2-1.9,1.7-1.8-0.5v-7.7c0,0,0.4-2.6-3.2-2c0,0-2.3,0.3-4.6,1.8l0,3.1l0.9,0c0,0,0.5-4.4,3.6-4.2
			c0,0,1.1-0.1,1.4,1.3c0,0.5,0,1,0,1.9c0,0-7.2,2.9-7.1,5.9c0.1,2.9,2.7,2.7,2.7,2.7s1.3,0,4.4-3.1l0,2.2c0,0,0.2,1.5,2,0.6
			c1.5-0.7,2-1.4,2-1.5c1.7,2,6,2.9,8.9-0.8C204.2,404.5,201.3,400.5,201.3,400.5z M184.2,409.4c0,0-1.6-0.1-1.3-2.2
			c0.3-2.1,4.6-3.6,5.3-3.6C188.1,403.6,188.2,409.7,184.2,409.4z M197.8,410c0,0-3.1,0.7-4.9-3.7c0,0-1.9-6.3,3.3-6.6
			c0,0,3.3-0.1,4.4,4.8C200.7,404.5,201.5,409.1,197.8,410z"/>
		<path class="st0" d="M177.1,396.3c-5.9-3-9.3-4-10.5-5.6c-1.2-1.6-2.1-5.3,2.5-6c4.6-0.7,6.9,5.4,6.7,6.4l2.2-0.2l-1-7.6
			c0,0-7.7-2.4-13.1,2.6c0,0-3.9,3.3-0.7,7.8c0,0,1.3,1.8,5.5,3.4c0,0,5.1,2.3,5.7,2.8c0.7,0.4,4,2.6,2.5,6.5
			c-1.5,3.9-7.5,3.7-9.7,1.1c-2.2-2.6-2.3-3.6-2.7-5.4l-2,0.3l1,7.9c0,0,3.5,1.5,8.8,0.8c5.3-0.7,7.9-5.4,8.1-5.8
			C180.6,404.8,183,399.3,177.1,396.3z"/>
	</g>
</g>
</svg>
